<?xml version="1.0" encoding="UTF-8" standalone="no"?>
<!-- Created with Inkscape (http://www.inkscape.org/) -->

<svg
   xmlns:dc="http://purl.org/dc/elements/1.1/"
   xmlns:cc="http://creativecommons.org/ns#"
   xmlns:rdf="http://www.w3.org/1999/02/22-rdf-syntax-ns#"
   xmlns:svg="http://www.w3.org/2000/svg"
   xmlns="http://www.w3.org/2000/svg"
   xmlns:sodipodi="http://sodipodi.sourceforge.net/DTD/sodipodi-0.dtd"
   xmlns:inkscape="http://www.inkscape.org/namespaces/inkscape"
   version="1.1"
   id="svg2"
   xml:space="preserve"
   width="1500"
   height="400"
   viewBox="0 0 1500 400"
   sodipodi:docname="logo-small.svg"
   inkscape:export-filename="/home/bojan/Downloads/logo-machine-learning-is-compl/logo-big.png"
   inkscape:export-xdpi="69.141563"
   inkscape:export-ydpi="69.141563"
   inkscape:version="0.92.3 (2405546, 2018-03-11)"><metadata
     id="metadata8"><rdf:RDF><cc:Work
         rdf:about=""><dc:format>image/svg+xml</dc:format><dc:type
           rdf:resource="http://purl.org/dc/dcmitype/StillImage" /><dc:title></dc:title></cc:Work></rdf:RDF></metadata><defs
     id="defs6" /><sodipodi:namedview
     pagecolor="#ffffff"
     bordercolor="#666666"
     borderopacity="1"
     objecttolerance="10"
     gridtolerance="10"
     guidetolerance="10"
     inkscape:pageopacity="0"
     inkscape:pageshadow="2"
     inkscape:window-width="1920"
     inkscape:window-height="1048"
     id="namedview4"
     showgrid="false"
     inkscape:zoom="0.35613681"
     inkscape:cx="371.33334"
     inkscape:cy="331.33334"
     inkscape:window-x="0"
     inkscape:window-y="0"
     inkscape:window-maximized="1"
     inkscape:current-layer="g10" /><g
     id="g10"
     inkscape:groupmode="layer"
     inkscape:label="ink_ext_XXXXXX"
     transform="matrix(1.3333333,0,0,-1.3333333,0,399.99999)"><path
       inkscape:connector-curvature="0"
       id="path14"
       style="fill:#0f9ec2;fill-opacity:1;fill-rule:evenodd;stroke:none;stroke-width:0.1"
       d="m 143.78833,280.73382 20.191,-11.657 20.19,-11.657 v -46.628 l -20.19,-11.658 -5.186,-2.994 v 8.056 l 18.4,10.623 v 38.573 0 l -33.405,19.287 v 0 l -33.406,-19.287 v -38.573 h 0.001 l 18.399,-10.623 v -8.056 l -5.185,2.994 -20.191,11.658 v 23.314 23.314 l 20.191,11.657 z m -80.763999,-139.885 20.191,-11.657 5.185,-2.994 -6.976,-4.028 -18.4,10.624 -33.405,-19.288 v -38.572 l 33.405,-19.287 33.406,19.287 v 21.245 l 6.975999,4.028 v -5.987 -23.314 l -20.190999,-11.657 -20.191,-11.657 -20.191,11.657 -20.191,11.657 v 23.314 23.314 l 20.191,11.658 z m 161.526999,0 20.191,-11.657 20.191,-11.658 v -46.628 l -20.191,-11.657 -20.191,-11.657 -20.191,11.657 -20.191,11.657 v 23.314 5.986 l 6.976,-4.027 v -21.245 l 33.406,-19.287 33.406,19.287 v 38.572 l -33.406,19.288 -15.613,-9.015 -2.787,-1.609 -6.976,4.027 5.185,2.995 20.191,11.657" /><path
       inkscape:connector-curvature="0"
       id="path16"
       style="fill:#26c4eb;fill-opacity:1;fill-rule:evenodd;stroke:none;stroke-width:0.1"
       d="m 166.73233,220.85982 -18.399,-10.622 v -25.383 l 35.839,-20.692 v -41.385 l 6.258,-3.613 15.724,-9.078 18.4,10.623 22.942,-13.245 v -26.49 l -22.942,-13.245 -22.941,13.245 v 21.245 l -13.982,8.072 -8.001,4.62 -35.84,-20.692 -35.84,20.692 -7.53,-4.348 -14.450999,-8.344 v -21.245 l -22.942,-13.245 -22.941,13.245 v 26.49 l 22.941,13.245 18.4,-10.622 14.649,8.457 7.333999,4.234 -0.001,41.383 35.84,20.692 v 25.383 l -18.399,10.623 -0.001,26.491 22.942,13.245 22.941,-13.245 z m -105.445999,-148.097 -17.712,10.225 v 20.124 l 17.712,-10.226 z m 165.008999,0 17.713,10.225 v 20.124 l -17.713,-10.226 z m -113.681,89.624 31.177,18 30.675,-17.711 -31.176,-18 z m 13.465,83.955 17.712,10.226 17.427,-10.062 -17.712,-10.226 -17.427,10.062" /><path
       inkscape:connector-curvature="0"
       id="path18"
       style="fill:#0a9ec2;fill-opacity:1;fill-rule:evenodd;stroke:none;stroke-width:0.1"
       d="m 143.78833,12.52882 11.145,6.434 11.144,6.434 v 25.737 l -11.144,6.434 -10.085,5.822 v 15.713 h -2.119 v -15.713 l -10.085,-5.822 -11.144,-6.434 v -12.869 -12.868 l 11.144,-6.434 z m 0,4.027 -18.63,10.757 18.63,10.755 18.631,-10.755 -18.631,-10.757" /><path
       inkscape:connector-curvature="0"
       id="path20"
       style="fill:#0a9ec2;fill-opacity:1;fill-rule:evenodd;stroke:none;stroke-width:0.1"
       d="m 54.661331,215.66082 11.144,-6.433 11.144,-6.435 v -24.469 l 13.516,-7.803 -1.06,-1.835 -13.477,7.781 -10.123,-5.845 -11.144,-6.434 -11.145,6.434 -11.144,6.434 v 12.868 12.869 l 11.144,6.435 z m 0,-4.027 -18.631,-10.756 18.631,-10.756 18.63,10.756 -18.63,10.756" /><path
       inkscape:connector-curvature="0"
       id="path22"
       style="fill:#0a9ec2;fill-opacity:1;fill-rule:evenodd;stroke:none;stroke-width:0.1"
       d="m 232.91533,215.66082 -11.144,-6.433 -11.144,-6.435 v -24.469 l -13.516,-7.803 1.059,-1.835 13.477,7.781 10.124,-5.845 11.144,-6.434 11.144,6.434 11.145,6.434 v 12.868 12.869 l -11.145,6.435 z m 0,-4.027 18.63,-10.756 -18.63,-10.756 -18.63,10.756 18.63,10.756" /><path
       inkscape:connector-curvature="0"
       id="path24"
       style="fill:#050505;fill-opacity:1;fill-rule:evenodd;stroke:none;stroke-width:0.14796542"
       d="m 367.54706,129.60779 h 74.00698 c 0.12873,1.14378 0.22194,2.22688 0.28705,3.24193 0.0636,1.018 0.0962,2.03452 0.0962,3.05252 0,7.24883 -1.01801,14.17953 -3.05238,20.78914 -2.03394,6.61554 -5.05391,12.40098 -9.06066,17.35783 -4.00661,4.96128 -9.02871,8.90307 -15.06865,11.82687 -6.04069,2.92676 -13.06727,4.3857 -21.07709,4.3857 -7.24971,0 -13.86021,-1.39828 -19.83594,-4.19334 -5.97988,-2.79655 -11.15926,-6.58151 -15.54629,-11.35191 -4.38628,-4.76745 -7.79067,-10.33095 -10.20487,-16.68902 -2.41776,-6.35807 -3.62634,-13.16152 -3.62634,-20.40739 0,-7.8836 1.33805,-15.04068 4.00661,-21.4612 2.67196,-6.42022 6.32774,-11.9192 10.96912,-16.499768 4.64123,-4.57657 10.10781,-8.13869 16.4033,-10.681919 6.29489,-2.543082 13.06726,-3.812921 20.31284,-3.812921 9.2832,0 17.26401,1.714327 23.93976,5.150972 6.67531,3.43265 12.42851,8.009812 17.26342,13.730746 l -13.54401,12.01982 c -4.06787,-3.94239 -8.20335,-6.93351 -12.40024,-8.96744 -4.19334,-2.03334 -9.15418,-3.05238 -14.87511,-3.05238 -7.50407,0 -13.86362,2.19521 -19.07541,6.58209 -5.21578,4.38703 -8.51896,10.71433 -9.91827,18.97967 z M 1065.5715,87.453041 V 226.6953 h -23.0781 V 87.453041 Z M 939.88823,172.52516 c -2.6693,5.34155 -6.51788,9.63107 -11.53982,12.87299 -5.02195,3.2434 -11.15955,4.86363 -18.40838,4.86363 -3.81307,0 -7.27842,-0.47645 -10.39457,-1.42639 -3.11467,-0.95438 -5.9127,-2.26091 -8.39408,-3.91369 -2.47842,-1.64981 -4.67126,-3.49346 -6.57854,-5.53242 -1.90727,-2.03305 -3.6873,-4.1963 -5.34007,-6.48385 v 15.25968 H 856.15016 V 87.453041 h 23.08261 v 56.652399 c 0,7.8836 1.96942,14.04932 5.90974,18.5016 3.94328,4.4508 9.15906,6.6762 15.6429,6.6762 6.48533,0 11.50727,-2.09963 15.07028,-6.29593 3.55709,-4.1963 5.34007,-10.23773 5.34007,-18.12132 V 87.453041 h 23.07817 v 56.841799 c 0,8.13958 2.0064,14.33785 6.0089,18.59925 4.0069,4.25697 9.1901,6.38915 15.5452,6.38915 6.4853,0 11.5117,-2.09963 15.0688,-6.29593 3.563,-4.1963 5.3416,-10.29839 5.3416,-18.3122 V 87.453041 h 23.08257 v 64.281499 c 0,12.33292 -3.1177,21.83822 -9.34847,28.5159 -6.2308,6.6762 -14.8779,10.01134 -25.9413,10.01134 -7.6291,0 -14.2106,-1.62023 -19.7415,-4.86363 -5.531,-3.24192 -10.331,-7.53144 -14.4015,-12.87299 z M 824.88507,87.453041 V 113.58403 H 799.51492 V 87.453041 Z M 701.4908,129.60779 h 74.00638 c 0.12873,1.14378 0.22195,2.22688 0.28705,3.24193 0.0636,1.018 0.0962,2.03452 0.0962,3.05252 0,7.24883 -1.018,14.17953 -3.05253,20.78914 -2.03304,6.61554 -5.05302,12.40098 -9.0614,17.35783 -4.00542,4.96128 -9.02737,8.90307 -15.06732,11.82687 -6.04143,2.92676 -13.0683,4.3857 -21.07767,4.3857 -7.24883,0 -13.85992,-1.39828 -19.83477,-4.19334 -5.98076,-2.79655 -11.15955,-6.58151 -15.54672,-11.35191 -4.38718,-4.76745 -7.79186,-10.33095 -10.20518,-16.68902 -2.41775,-6.35807 -3.62663,-13.16152 -3.62663,-20.40739 0,-7.8836 1.33909,-15.04068 4.0069,-21.4612 2.67226,-6.42022 6.32701,-11.9192 10.96868,-16.499768 4.64168,-4.57657 10.109,-8.13869 16.40345,-10.681919 6.29445,-2.543082 13.06682,-3.812921 20.31269,-3.812921 9.28335,0 17.2646,1.714327 23.93932,5.150972 6.6762,3.43265 12.4291,8.009812 17.26461,13.730746 l -13.54476,12.01982 c -4.06757,-3.94239 -8.2032,-6.93351 -12.40098,-8.96744 -4.19186,-2.03334 -9.15314,-3.05238 -14.87348,-3.05238 -7.50481,0 -13.86436,2.19521 -19.0757,6.58209 -5.21578,4.38703 -8.51985,10.71433 -9.91812,18.97967 z m -0.1894,15.2582 c 1.01356,7.88359 3.84414,14.2757 8.48582,19.17188 4.64167,4.89321 10.5233,7.34352 17.64339,7.34352 3.81307,0 7.21776,-0.69988 10.20518,-2.09815 2.9889,-1.39975 5.5635,-3.27595 7.72231,-5.6286 2.16474,-2.35413 3.88261,-5.15068 5.15216,-8.39408 1.2725,-3.24193 2.09815,-6.70728 2.48138,-10.39457 z m -44.61897,-27.65563 v 0.38027 c 0,4.57598 -0.95438,8.45416 -2.85869,11.63541 -1.90876,3.1783 -4.35906,5.88015 -7.34648,8.10703 -2.98743,2.22392 -6.32405,4.10012 -10.01578,5.6286 -3.68582,1.52405 -7.3746,2.85869 -11.0619,4.00247 -2.92379,0.88927 -5.75289,1.81109 -8.48581,2.76547 -2.73441,0.95438 -5.15216,1.97238 -7.25031,3.05253 -2.09815,1.08014 -3.78348,2.28902 -5.0545,3.62219 -1.2725,1.33909 -1.90727,2.89568 -1.90727,4.67423 v 0.38323 c 0,2.92379 1.24143,5.34155 3.71985,7.24586 2.47842,1.90876 5.94377,2.86313 10.39457,2.86313 4.1963,0 8.77435,-0.85672 13.73415,-2.57607 4.96128,-1.71344 9.85449,-4.03502 14.68852,-6.96178 l 9.15462,16.40345 c -5.34155,3.56153 -11.25276,6.35955 -17.73809,8.39408 -6.48532,2.03304 -12.9085,3.05104 -19.2651,3.05104 -4.9598,0 -9.63402,-0.69839 -14.0212,-2.09814 -4.38717,-1.39828 -8.20024,-3.43132 -11.44216,-6.10506 -3.24341,-2.66781 -5.78693,-5.91122 -7.63058,-9.72724 -1.84661,-3.81307 -2.76843,-8.07448 -2.76843,-12.77682 v -0.38323 c 0,-4.83255 0.95437,-8.87052 2.86313,-12.11393 1.90727,-3.24192 4.35462,-5.97632 7.34204,-8.20024 2.99186,-2.22688 6.35956,-4.03798 10.11196,-5.43773 3.75092,-1.39827 7.47077,-2.66782 11.15807,-3.81307 2.9238,-0.88927 5.75437,-1.75043 8.4873,-2.5746 2.73292,-0.8286 5.15067,-1.78002 7.24882,-2.86313 2.09963,-1.08014 3.7524,-2.32009 4.95832,-3.71985 1.2074,-1.39812 1.81406,-3.05238 1.81406,-4.95684 v -0.38382 c 0,-3.30318 -1.37016,-5.94348 -4.10308,-7.91615 -2.73292,-1.96912 -6.57854,-2.95576 -11.53983,-2.95576 -5.21134,0 -10.64907,1.0513 -16.30874,3.14945 -5.6582,2.09874 -11.2217,5.17938 -16.6905,9.25079 L 576.571,100.61338 c 6.35511,-4.957432 13.2577,-8.709243 20.69592,-11.252325 7.43674,-2.54323 14.78322,-3.816472 22.02761,-3.816472 5.21578,0 10.11196,0.667028 14.68853,2.005079 4.57805,1.3345 8.5524,3.303772 11.92453,5.911071 3.36769,2.60789 6.00739,5.882809 7.91615,9.824607 1.90431,3.94254 2.85869,8.58377 2.85869,13.92502 z M 553.50615,87.453041 v 59.700489 c 0,13.48113 -3.62516,23.94081 -10.87102,31.37903 -7.25031,7.4397 -18.37583,11.15955 -33.381,11.15955 -8.26831,0 -15.3233,-0.7635 -21.17385,-2.28903 -5.85055,-1.527 -11.57237,-3.56152 -17.16695,-6.10505 l 6.29445,-18.50159 c 4.57657,1.90875 9.09248,3.43279 13.54476,4.57805 4.44784,1.14377 9.53341,1.71787 15.25819,1.71787 8.01085,0 14.14845,-1.84365 18.40542,-5.53094 4.2614,-3.6873 6.3921,-9.02885 6.3921,-16.02318 v -2.48286 c -3.9418,1.27398 -8.04192,2.29199 -12.30332,3.05253 -4.26141,0.76498 -9.44167,1.14377 -15.54525,1.14377 -5.85055,0 -11.28532,-0.66584 -16.31023,-2.00049 -5.02194,-1.33465 -9.34401,-3.33958 -12.97064,-6.0074 -3.62368,-2.67373 -6.45278,-6.04142 -8.4873,-10.10899 -2.03304,-4.07201 -3.05253,-8.83798 -3.05253,-14.30826 v -0.38027 c 0,-5.08631 0.98693,-9.56981 2.95635,-13.44754 1.97238,-3.877728 4.57953,-7.120242 7.82293,-9.728133 3.24193,-2.607298 7.02244,-4.57657 11.34895,-5.914621 4.32207,-1.3345 8.90012,-2.001528 13.73119,-2.001528 7.6291,0 14.11442,1.398717 19.45597,4.196151 5.34008,2.798026 9.72725,6.230823 13.16301,10.302092 v -12.39965 z m -22.31763,36.432929 c 0,-3.1783 -0.66732,-6.0728 -2.00197,-8.68069 -1.33465,-2.60448 -3.21085,-4.83195 -5.62712,-6.67575 -2.41776,-1.8438 -5.2439,-3.27492 -8.4873,-4.28981 -3.24192,-1.01845 -6.77238,-1.52834 -10.5884,-1.52834 -5.46733,0 -10.07645,1.27398 -13.82885,3.81647 -3.75092,2.54382 -5.62713,6.23083 -5.62713,11.06278 v 0.37968 c 0,5.21578 2.03749,9.22269 6.10506,12.01627 4.06757,2.79803 9.72724,4.1963 16.97607,4.1963 4.45228,0 8.67817,-0.38027 12.68359,-1.14377 4.00839,-0.76054 7.47226,-1.71492 10.39605,-2.85869 z m -163.83159,20.98002 c 1.01489,7.88359 3.84532,14.2757 8.48715,19.17188 4.64123,4.89321 10.52404,7.34352 17.64428,7.34352 3.81248,0 7.21686,-0.69988 10.20443,-2.09815 2.98817,-1.39975 5.5638,-3.27595 7.72306,-5.6286 2.16281,-2.35413 3.88128,-5.15068 5.15053,-8.39408 1.27383,-3.24193 2.09859,-6.70728 2.48241,-10.39457 h -51.69186" /></g></svg>